<svg fill="none" viewBox="0 0 1024 1024"><path fill="#232327" d="M0 0h1024v1024H0z"/><path fill="#9C86AA" d="M257.194 262c.8-.8 1.2-1.6 1.2-2.4 0-1.6.4-2.8 1.2-3.6v-1.2h-16.8v16.8h9.6c0-1.6.4-3.2 1.2-4.8 1.6-2.4 2.8-4 3.6-4.8zm315.6-1.2l2.4 2.4 2.4 2.4v-10.8h-8.4c.8.8 1.2 2 1.2 3.6l2.4 2.4zm20.4-6h-8.4v16.8h16.8v-14.4h-1.2c-1.6-.8-3.2-1.2-4.8-1.2-.8 0-1.6-.4-2.4-1.2zm19.2 6c-.8-.8-2-1.2-3.6-1.2v12h16.8V262c-5.6 0-10-.4-13.2-1.2zm32.4 3.6c-3.2-.8-7.2-1.6-12-2.4v9.6h16.8v-6l-4.8-1.2zm15.6 7.2l-3.6-2.4v2.4h3.6zm-404.4 14.4l3.6 3.6v-6l-3.6-4.8h-7.2l7.2 7.2zm330 9.6h15.6v-16.8h-16.8v8.4c.8 2.4 1.2 5.2 1.2 8.4zm22.8 0h16.8v-16.8h-16.8v16.8zm24 0h16.8v-16.8h-16.8v16.8zm24 0h16.8v-14.4l-2.4-2.4c-.8-.8-.8-.8 0 0h-14.4v16.8zm24 0h7.2l-7.2-7.2v7.2zm-92.4 24h13.2v-16.8h-14.4c0 4.8.4 10.4 1.2 16.8zm20.4 0h16.8v-16.8h-16.8v16.8zm24 0h16.8v-16.8h-16.8v16.8zm24 0h16.8v-16.8h-16.8v16.8zm24 0h16.8v-13.2l-3.6-3.6h-13.2v16.8zm-382.8-4.8c1.6 1.6 3.6 3.2 6 4.8h3.6c-2.4-1.6-4.8-2.8-7.2-3.6-1.6-1.6-3.6-2.8-6-3.6h-1.2l4.8 2.4zm406.8-1.2v-1.2 7.2h8.4c-2.4-1.6-5.2-3.6-8.4-6zm88.8 6v-1.2l-1.2 1.2h1.2zm-206.4 19.2v4.8h14.4v-16.8h-13.2c0 3.2-.4 7.2-1.2 12zm21.6 4.8h16.8v-16.8h-16.8v16.8zm24 0h16.8v-16.8h-16.8v16.8zm24 0h16.8v-16.8h-16.8v16.8zm24 0h16.8v-16.8h-16.8v16.8zm24 0h16.8v-16.8h-16.8v16.8zm72-10.8v10.8h16.8v-16.8h-9.6c-2.4 3.2-4.8 5.2-7.2 6zm-459.6 0c2.4 2.4 4.8 6 7.2 10.8h1.2l-2.4-4.8-4.8-4.8c-.8-2.4-2-4.4-3.6-6v2.4l2.4 2.4zm411.6 10.8h16.8V334c-5.6-1.6-11.2-3.6-16.8-6v15.6zm-216-1.2h-7.2v-6h-7.2c-2.4-.8-4.4-1.2-6-1.2-.8-.8-2-1.2-3.6-1.2-.8-.8-1.6-1.2-2.4-1.2-.8.8-1.2 1.6-1.2 2.4h7.2v8.4h24c-1.6-2.4-2.8-3.6-3.6-3.6v2.4zm240 1.2h16.8v-10.8l-9.6 2.4h-7.2v8.4zm-268.8-3.6c0 .8-.4 2-1.2 3.6h2.4v-8.4c0 .8-.4 1.6-1.2 2.4v2.4zm-153.6 15.6l1.2 1.2v-2.4l-2.4-3.6h-1.2l2.4 4.8zm147.6 1.2c0 2.4.8 6 2.4 10.8h4.8v-16.8h-6c-.8 2.4-1.2 4.4-1.2 6zm48 0c-.8-.8-2.4-2.8-4.8-6h-28.8v16.8h16.8V352h7.2v15.6h16.8l-4.8-4.8c-.8-2.4-1.6-4.4-2.4-6zm58.8 10.8h16.8v-16.8h-14.4c-.8 4-1.6 7.6-2.4 10.8v6zm24 0h16.8v-16.8h-16.8v16.8zm24 0h16.8v-16.8h-16.8v16.8zm24 0h16.8v-16.8h-16.8v16.8zm24 0h16.8v-16.8h-16.8v16.8zm24 0h16.8v-16.8h-16.8v16.8zm24 0h16.8v-16.8h-16.8v16.8zm24 0h16.8v-16.8h-16.8v16.8zm-252 14.4h-8.4v9.6h16.8v-16.8h-8.4v7.2zm15.6 9.6h16.8v-16.8h-16.8v16.8zm68.4-6h-7.2v-7.2c-3.2 1.6-4.4 2.4-3.6 2.4-1.6.8-3.2 2-4.8 3.6-1.6 1.6-3.2 2.8-4.8 3.6v3.6h16.8V388h7.2v3.6h16.8v-1.2h7.2v1.2h13.2v-16.8h-16.8V388h-7.2v-13.2h-16.8v10.8zm48 6h16.8v-16.8h-16.8v16.8zm24 0h16.8v-16.8h-16.8v16.8zm24 0h16.8v-16.8h-16.8v16.8zm24 0h16.8v-16.8h-16.8v16.8zm24 0h16.8v-16.8h-16.8v16.8zm-379.2-1.2v1.2h3.6c.8-2.4.8-4.4 0-6 0-.8-.4-1.6-1.2-2.4l-2.4-2.4-4.8-4.8 1.2 1.2c.8 1.6 1.2 4 1.2 7.2.8 2.4 1.6 4.4 2.4 6zm190.8-12v13.2h16.8v-4.8c-.8-.8-1.6-1.2-2.4-1.2-.8-.8-1.6-1.2-2.4-1.2-1.6-.8-3.6-1.6-6-2.4-2.4-1.6-4.4-2.8-6-3.6zm-37.2 27.6h-9.6v1.2c0 1.6-.4 4.4-1.2 8.4h16.8v-16.8h-6v7.2zm13.2 9.6h16.8v-16.8h-16.8v16.8zm24 0h16.8v-16.8h-16.8v16.8zm24 0h16.8v-16.8h-16.8v16.8zm24 0h16.8v-16.8h-16.8v16.8zm48-13.2v13.2h13.2v-16.8h-37.2v16.8h16.8v-13.2h7.2zm20.4 13.2h16.8v-16.8h-16.8v16.8zm24 0h16.8v-16.8h-16.8v16.8zm24 0h16.8v-16.8h-16.8v16.8zm-360-8.4v14.4c3.2-8 5.2-14.4 6-19.2l-3.6 3.6-2.4 1.2zm171.6 32.4h16.8v-16.8h-16.8v16.8zm24 0h16.8v-16.8h-16.8v16.8zm24 0h16.8v-16.8h-16.8v16.8zm24 0h16.8v-16.8h-16.8v16.8zm24 0h16.8v-16.8h-16.8v16.8zm48-1.2v1.2h13.2v-16.8h-37.2v16.8h16.8v-1.2h7.2zm20.4 1.2h16.8v-16.8h-16.8v16.8zm40.8 0v-16.8h-16.8v16.8h16.8zm-229.2 0h16.8V430h-16.8v9.6zm-15.6-1.2c-.8 0-1.6.4-2.4 1.2h10.8v-4.8l-4.8 2.4c-1.6 0-2.8.4-3.6 1.2zm-26.4 25.2h10.8v-20.4c-3.2 0-6.4-.4-9.6-1.2-3.2-1.6-5.6-2.4-7.2-2.4v48h16.8v-16.8h-10.8v-7.2zm18 0h16.8v-16.8h-16.8v16.8zm56.4-9.6h-8.4v9.6h16.8v-16.8h-8.4v7.2zm15.6 9.6h16.8v-16.8h-16.8v16.8zm24 0h16.8v-16.8h-16.8v16.8zm24 0h16.8v-16.8h-16.8v16.8zm24 0h16.8v-16.8h-16.8v16.8zm-120 0h16.8V454h-16.8v9.6zm192 75.6h-7.2v-72h7.2v72zm-205.2-61.2v-7.2h-10.8v16.8h16.8V478h-6zm67.2 0h-6v9.6h16.8v-16.8h-10.8v7.2zm18 9.6h16.8v-16.8h-16.8v16.8zm24 0h16.8v-16.8h-16.8v16.8zm-85.2-9.6h1.2-12v9.6l4.8-4.8c2.4-1.6 4.4-3.2 6-4.8zm27.6 4.8c.8 0 1.6.4 2.4 1.2v-6h-12c4.8 1.6 8 3.2 9.6 4.8zm-86.4 28.8h16.8v-16.8h-16.8v16.8zm27.6-9.6v-7.2h-3.6v16.8h13.2c.8-1.6 2-4.8 3.6-9.6h-13.2zm78 9.6h7.2v-16.8h-16.8v1.2c4.8 6.4 8 11.6 9.6 15.6zm14.4 0h16.8v-16.8h-16.8v16.8zm-168 24h16.8v-16.8h-16.8v16.8zm24 0h16.8v-16.8h-16.8v16.8zm40.8-10.8v-6h-16.8v16.8h24l2.4-4.8 2.4-4.8h-6v-1.2h-6zm92.4-6c1.6 2.4 2.8 4.4 3.6 6v-6h-3.6zm21.6 24h-9.6c5.6 10.4 10 20 13.2 28.8l2.4 7.2v-60h-16.8v16.8h10.8v7.2zm-216 4.8h-12v-7.2h12v7.2zm37.2 12h16.8v-16.8h-16.8v16.8zm48-15.6h-7.2v-1.2h-16.8v16.8h16.8v-8.4h7.2v8.4h10.8l2.4-4.8c1.6-2.4 2.8-4.4 3.6-6 .8-1.6 1.6-3.6 2.4-6h-19.2v1.2zm-48 44.4h16.8v-21.6h-16.8v21.6zm37.2-4.8h3.6v-16.8h-16.8v21.6h13.2v-4.8zm24-9.6l-2.4-2.4v-4.8h-10.8v16.8h14.4c-.8-1.6-1.2-3.2-1.2-4.8V574zm-109.2 14.4h16.8v-16.8h-16.8v16.8zm24 0h16.8v-16.8h-16.8v16.8zm75.6 7.2h-3.6v16.8h15.6v-4.8h1.2v-16.8h-13.2v4.8zm-147.6 16.8h16.8v-16.8h-16.8v16.8zm24 0h16.8v-16.8h-16.8v16.8zm24 0h16.8v-16.8h-16.8v16.8zm24 0h16.8v-16.8h-16.8v16.8zm24 0h16.8v-16.8h-16.8v16.8zm24 0h16.8v-16.8h-16.8v16.8zm48-4.8h7.2c-3.2-3.2-5.6-6.4-7.2-9.6v9.6zm3.6 24h13.2v-14.4l-2.4-2.4h-14.4v21.6h3.6v-4.8zm-195.6 4.8h16.8v-16.8h-16.8v16.8zm24 0h16.8v-16.8h-16.8v16.8zm24 0h16.8v-16.8h-16.8v16.8zm24 0h16.8v-16.8h-16.8v16.8zm24 0h16.8v-16.8h-16.8v16.8zm24 0h16.8v-16.8h-16.8v16.8zm24 0h16.8v-16.8h-16.8v16.8zm24 0h16.8v-16.8h-16.8v16.8zm48-4.8h7.2l-7.2-7.2v7.2zm-20.4 12h-3.6v16.8h10.8v-4.8h6v-16.8h-13.2v4.8zm20.4 12h16.8v-14.4l-2.4-2.4h-14.4v16.8zm-240 4.8h16.8v-16.8h-16.8v16.8zm24 0h16.8v-16.8h-16.8v16.8zm24 0h16.8v-16.8h-16.8v16.8zm24 0h16.8v-16.8h-16.8v16.8zm24 0h16.8v-16.8h-16.8v16.8zm24 0h16.8v-16.8h-16.8v16.8zm24 0h16.8v-16.8h-16.8v16.8zm24 0h16.8v-16.8h-16.8v16.8zm24 0h16.8v-16.8h-16.8v16.8zm72-4.8h8.4c-3.2-2.4-6-4.8-8.4-7.2v7.2zm-34.8 12h-13.2v16.8h16.8v-21.6h-3.6v4.8zm10.8 12h16.8v-16.8h-16.8v16.8zm24 0h16.8V664l-1.2-1.2h-15.6v16.8zm135.6-8.4c.8 1.6.8 4 0 7.2-.8 2.4-1.2 4.4-1.2 6h2.4v-16.8h-3.6c1.6 1.6 2.4 2.8 2.4 3.6zm8.4 13.2h7.2c3.2-4 6.4-7.6 9.6-10.8v-6h-16.8v16.8zm-408 0h16.8v-16.8h-16.8v16.8zm24 0h16.8v-16.8h-16.8v16.8zm24 0h16.8v-16.8h-16.8v16.8zm24 0h16.8v-16.8h-16.8v16.8zm24 0h16.8v-16.8h-16.8v16.8zm24 0h16.8v-16.8h-16.8v16.8zm24 0h16.8v-16.8h-16.8v16.8zm24 0h16.8v-16.8h-16.8v16.8zm24 0h16.8v-16.8h-16.8v16.8zm96-4.8h12l-12-9.6v9.6zm-48 24h16.8v-16.8h-16.8v16.8zm24 0h10.8c2.4-2.4 4.4-3.6 6-3.6v-13.2h-16.8v16.8zm24-3.6c3.2 0 6 .4 8.4 1.2 3.2 0 6 .4 8.4 1.2v-15.6h-16.8V700zm24 3.6h16.8v-4.8c-5.6-3.2-11.2-6.8-16.8-10.8v15.6zm76.8-1.2c-.8 0-1.6.8-2.4 2.4l-2.4 2.4v1.2h15.6l1.2-1.2v-15.6h-2.4c0 1.6-.4 2.8-1.2 3.6-.8 1.6-2 3.2-3.6 4.8l-4.8 2.4zm19.2-7.2l2.4-3.6h-2.4v3.6zm-374.4 0l2.4 2.4 4.8 2.4v-8.4h-10.8l3.6 3.6zm15.6 13.2h15.6v-16.8h-16.8v15.6l1.2 1.2zm22.8 0h16.8v-16.8h-16.8v16.8zm24 0h16.8v-16.8h-16.8v16.8zm24 0h16.8v-16.8h-16.8v16.8zm24 0h16.8v-16.8h-16.8v16.8zm24 0h16.8v-16.8h-16.8v16.8zm24 0h16.8v-16.8h-16.8v16.8zm24 0h16.8v-16.8h-16.8v16.8zm38.4 18v-3.6c.8-1.6 1.6-2.8 2.4-3.6v-8.4h-16.8v16.8h13.2l1.2-1.2zm73.2-15.6l1.2 1.2v-1.2h-1.2zm22.8 4.8v-4.8h-14.4v4.8l7.2 4.8 9.6 4.8v-9.6h-2.4zm13.2 12v1.2l4.8 2.4c2.4.8 4.4 1.2 6 1.2h2.4v-16.8h-16.8v12h3.6zm21.6-1.2c4-4 7.2-7.6 9.6-10.8h-10.8v10.8h1.2zm-328.8-10.8c2.4 3.2 5.2 6.4 8.4 9.6v-9.6h-8.4zm15.6 16.8h16.8v-16.8h-16.8v16.8zm24 0h16.8v-16.8h-16.8v16.8zm24 0h16.8v-16.8h-16.8v16.8zm24 0h16.8v-16.8h-16.8v16.8zm24 0h16.8v-16.8h-16.8v16.8zm24 0h16.8v-16.8h-16.8v16.8zm24 0h16.8v-16.8h-16.8v16.8zm24 2.4V772c1.6-6.4 3.2-12.4 4.8-18 1.6-6.4 3.6-12.8 6-19.2h-10.8zm-159.6 4.8l8.4 8.4v-8.4h-8.4zm18 16.8h14.4v-16.8h-16.8V754l2.4 2.4zm21.6 0h16.8v-16.8h-16.8v16.8zm24 0h16.8v-16.8h-16.8v16.8zm24 0h12l4.8-4.8v-12h-16.8v16.8zm38.4-9.6h2.4v-7.2h-16.8v8.4c2.4-.8 4.8-.8 7.2 0 2.4 0 4.8-.4 7.2-1.2zm15.6 7.2l2.4 2.4h8.4v-16.8h-16.8v7.2c.8 0 1.6 1.2 2.4 3.6l3.6 3.6zm-115.2 9.6c2.4 1.6 4.4 3.2 6 4.8v-4.8h-6zm15.6 10.8c2.4.8 4.8 1.2 7.2 1.2h7.2v-12h-16.8v9.6l2.4 1.2zm33.6-2.4l4.8-2.4v-6h-16.8v13.2h2.4c1.6 0 3.2-.4 4.8-1.2 1.6-1.6 3.2-2.8 4.8-3.6zm12-7.2l2.4-1.2h-2.4v1.2zm63.6 0c.8 2.4.8 5.2 0 8.4v7.2h1.2v-16.8h-2.4l1.2 1.2zm1.2 39.6v-16.8h-1.2c-.8 5.6-2 11.2-3.6 16.8h4.8zm-15.6 21.6l-1.2 1.2v1.2h16.8v-16.8h-7.2c-2.4 4.8-5.2 9.6-8.4 14.4zm-241.2 2.4h1.2c0-.8-.4-3.2-1.2-7.2v7.2zm97.2 31.2h-31.2v-4.8c-12-.8-22.8-2.8-32.4-6h-7.2l-4.8-2.4c-1.6-.8-2.8-1.6-3.6-2.4h-1.2v-1.2c-1.6-1.6-3.2-2.8-4.8-3.6-1.6-1.6-2.4-2.8-2.4-3.6h-18v-7.2h1.2v-16.8h-13.2v-7.2h13.2v-16.8h-18v-7.2h18v-16.8h-18v-7.2h18v-16.8h-18v-7.2h18v-16.8h-18v-7.2h18v-1.2h7.2v1.2l3.6-7.2c.8-.8 2.4-1.6 4.8-2.4 2.4-1.6 4.4-3.2 6-4.8l2.4-1.2v-1.2h-37.2v-7.2h37.2v-16.8h-27.6v-7.2h27.6v-16.8h-13.2v-7.2h13.2v-13.2h7.2v13.2h16.8v-16.8h-15.6v-7.2h15.6V604h7.2v8.4h16.8v-16.8h-10.8v-7.2h34.8v-1.2h7.2v1.2h16.8v-16.8h-32.4v-7.2h56.4v-30h7.2v30h16.8v-21.6h-3.6v-7.2h3.6V508h7.2v3.6h16.8v-32.4h7.2v32.4h16.8v-16.8h-15.6v-7.2h15.6v-50.4c-4-.8-8-2-12-3.6-3.2-1.6-6.8-2.4-10.8-2.4-3.2-.8-6.4-.8-9.6 0h-9.6c-7.2.8-14.4 2-21.6 3.6-7.2.8-14.4.8-21.6 0l-7.2-1.2v2.4h-7.2v-21.6l-3.6 3.6c-.8.8-2 1.2-3.6 1.2v3.6h-9.6V436h-7.2v-10.8c-5.6 1.6-11.2 2.8-16.8 3.6v7.2h-7.2v-6c-7.2.8-12.8 1.2-16.8 1.2v2.4h-7.2v-2.4h-8.4c-1.6-.8-3.6-1.6-6-2.4l-4.8-2.4h-4.8V424c-4-1.6-6.8-2.8-8.4-3.6l-4.8-4.8c-.8-2.4-1.6-4.4-2.4-6l-4.8-4.8c-1.6-1.6-2.8-3.6-3.6-6-.8-1.6-1.6-3.6-2.4-6v-6c-3.2-10.4-4.8-20.8-4.8-31.2V322c.8-6.4 1.2-12.4 1.2-18 .8-6.4 2.4-12.8 4.8-19.2 0-1.6.4-3.6 1.2-6 .8-3.2 1.6-5.2 2.4-6 .8-.8 1.6-1.2 2.4-1.2h3.6c.8-.8 2-1.2 3.6-1.2 2.4-.8 4.4-1.6 6-2.4v-13.2h3.6v-7.2h20.4v-2.4h7.2v1.2l4.8-2.4c1.6-.8 3.2-1.2 4.8-1.2 6.4-3.2 13.2-5.6 20.4-7.2 8-1.6 16-2.4 24-2.4 16-.8 32-1.2 48-1.2h86.4c12.8 0 25.2.4 37.2 1.2 4 0 7.6.4 10.8 1.2h9.6c6.4.8 12 1.6 16.8 2.4v-2.4h7.2v4.8c5.6.8 10.8 2.4 15.6 4.8.8 0 1.2.4 1.2 1.2v-10.8h7.2v13.2h16.8v-13.2h7.2v13.2h9.6v-7.2c0-3.2.4-5.2 1.2-6 .8-.8 2.8-1.2 6-1.2h7.2c5.6-.8 11.2-1.2 16.8-1.2h62.4c13.6 0 27.2.4 40.8 1.2 7.2 0 14.4.8 21.6 2.4 8 .8 14.8 3.2 20.4 7.2 1.6.8 3.6 2.4 6 4.8.8.8 1.2 1.6 1.2 2.4 2.4 1.6 4.8 3.6 7.2 6 2.4 1.6 4 3.6 4.8 6 4.8 7.2 8 15.6 9.6 25.2h1.2v122.4h-7.2v-58.8h-16.8v102h-7.2v-78h-16.8v16.8h2.4v7.2h-2.4v70.8h-7.2v-70.8h-16.8v16.8h12v7.2h-12v51.6h-7.2v-27.6h-16.8v22.8h-7.2v-22.8h-16.8V460h-7.2v-13.2h-13.2v116.4h-7.2V446.8h-16.8v16.8h13.2v7.2h-13.2v111.6h-7.2V470.8h-16.8v128.4h-7.2V494.8h-16.8V604c2.4 7.2 4.8 12.8 7.2 16.8 4.8 7.2 10.4 13.6 16.8 19.2 4 2.4 7.6 4.4 10.8 6 4 .8 6.8 2 8.4 3.6h4.8v3.6l7.2 7.2h9.6v-10.8h7.2v10.8h16.8v-10.8h7.2v10.8h10.8c2.4-.8 4.4-1.6 6-2.4v-8.4h7.2v7.2c4.8-.8 10.4-1.2 16.8-1.2V652h7.2v4.8h9.6c2.4.8 4.8 1.2 7.2 1.2v-6h7.2v6c3.2 0 6 .4 8.4 1.2h8.4v-2.4h7.2v3.6h16.8v2.4h1.2c1.6.8 3.2 2 4.8 3.6h1.2v1.2c.8.8 1.6 2 2.4 3.6 1.6.8 2.8 1.2 3.6 1.2.8 1.6 2 2.8 3.6 3.6 1.6.8 2.8 2 3.6 3.6.8 1.6 1.6 3.6 2.4 6 .8 1.6 1.6 3.6 2.4 6 1.6 4.8 2.8 10 3.6 15.6h2.4v30c.8 4.8 1.2 9.6 1.2 14.4 0 4-.4 8-1.2 12v15.6c-.8 9.6-2.4 18-4.8 25.2v7.2h-2.4l-2.4 7.2c-.8 2.4-1.6 4.4-2.4 6-.8.8-2.4 2-4.8 3.6v7.2h-7.2l-7.2 7.2c-6.4 3.2-13.2 5.6-20.4 7.2-7.2 1.6-14 2.8-20.4 3.6-4 .8-8 1.2-12 1.2v4.8h-98.4V856h-93.6c-1.6-.8-3.6-1.2-6-1.2h-6v1.2h-7.2v-1.2c-6.4-.8-11.6-2-15.6-3.6l-1.2-1.2v6h-7.2v-9.6c-5.6-4-9.6-7.2-12-9.6l-1.2-1.2h-3.6V856h-7.2v-20.4h-16.8V856h-7.2v-19.2c-4.8 4-10.4 7.2-16.8 9.6v9.6h-7.2v-7.2c-4 1.6-8 2.8-12 3.6h1.2v7.2h-55.2V856h-45.6v3.6z"/></svg>