<svg width="1024" height="1024" viewBox="0 0 1024 1024" fill="none" xmlns="http://www.w3.org/2000/svg">
<rect width="1024" height="1024" fill="#232327"/>
<path d="M257.194 262C257.994 261.2 258.394 260.4 258.394 259.6C258.394 258 258.794 256.8 259.594 256V254.8H242.794V271.6H252.394C252.394 270 252.794 268.4 253.594 266.8C255.194 264.4 256.394 262.8 257.194 262ZM572.794 260.8C573.594 261.6 574.394 262.4 575.194 263.2C575.994 264 576.794 264.8 577.594 265.6V254.8H569.194C569.994 255.6 570.394 256.8 570.394 258.4C571.194 259.2 571.994 260 572.794 260.8ZM593.194 254.8H584.794V271.6H601.594V257.2H600.394C598.794 256.4 597.194 256 595.594 256C594.794 256 593.994 255.6 593.194 254.8ZM612.394 260.8C611.594 260 610.394 259.6 608.794 259.6V271.6H625.594V262C619.994 262 615.594 261.6 612.394 260.8ZM644.794 264.4C641.594 263.6 637.594 262.8 632.794 262V271.6H649.594V265.6L644.794 264.4ZM660.394 271.6L656.794 269.2V271.6H660.394ZM255.994 286C257.594 287.6 258.794 288.8 259.594 289.6V283.6C259.594 283.6 258.394 282 255.994 278.8H248.794C251.994 282 254.394 284.4 255.994 286ZM585.994 295.6H601.594V278.8H584.794V287.2C585.594 289.6 585.994 292.4 585.994 295.6ZM608.794 295.6H625.594V278.8H608.794V295.6ZM632.794 295.6H649.594V278.8H632.794V295.6ZM656.794 295.6H673.594V281.2C672.794 280.4 671.994 279.6 671.194 278.8C670.394 278 670.394 278 671.194 278.8H656.794V295.6ZM680.794 295.6H687.994C684.794 292.4 682.394 290 680.794 288.4V295.6ZM588.394 319.6H601.594V302.8H587.194C587.194 307.6 587.594 313.2 588.394 319.6ZM608.794 319.6H625.594V302.8H608.794V319.6ZM632.794 319.6H649.594V302.8H632.794V319.6ZM656.794 319.6H673.594V302.8H656.794V319.6ZM680.794 319.6H697.594V306.4C696.794 305.6 695.594 304.4 693.994 302.8H680.794V319.6ZM297.994 314.8C299.594 316.4 301.594 318 303.994 319.6H307.594C305.194 318 302.794 316.8 300.394 316C298.794 314.4 296.794 313.2 294.394 312.4C294.394 312.4 293.994 312.4 293.194 312.4L297.994 314.8ZM704.794 313.6V312.4V319.6H713.194C710.794 318 707.994 316 704.794 313.6ZM793.594 319.6V318.4C793.594 318.4 793.194 318.8 792.394 319.6H793.594ZM587.194 338.8C587.194 341.2 587.194 342.8 587.194 343.6H601.594V326.8H588.394C588.394 330 587.994 334 587.194 338.8ZM608.794 343.6H625.594V326.8H608.794V343.6ZM632.794 343.6H649.594V326.8H632.794V343.6ZM656.794 343.6H673.594V326.8H656.794V343.6ZM680.794 343.6H697.594V326.8H680.794V343.6ZM704.794 343.6H721.594V326.8H704.794V343.6ZM776.794 332.8V343.6H793.594V326.8H783.994C781.594 330 779.194 332 776.794 332.8ZM317.194 332.8C319.594 335.2 321.994 338.8 324.394 343.6H325.594L323.194 338.8C321.594 337.2 319.994 335.6 318.394 334C317.594 331.6 316.394 329.6 314.794 328V330.4L317.194 332.8ZM728.794 343.6H745.594V334C739.994 332.4 734.394 330.4 728.794 328V343.6ZM512.794 342.4H505.594V336.4C503.194 336.4 500.794 336.4 498.394 336.4C495.994 335.6 493.994 335.2 492.394 335.2C491.594 334.4 490.394 334 488.794 334C487.994 333.2 487.194 332.8 486.394 332.8C485.594 333.6 485.194 334.4 485.194 335.2H492.394V343.6H516.394C514.794 341.2 513.594 340 512.794 340V342.4ZM752.794 343.6H769.594V332.8C766.394 333.6 763.194 334.4 759.994 335.2C757.594 335.2 755.194 335.2 752.794 335.2V343.6ZM483.994 340C483.994 340.8 483.594 342 482.794 343.6H485.194V335.2C485.194 336 484.794 336.8 483.994 337.6C483.994 338.4 483.994 339.2 483.994 340ZM330.394 355.6C331.194 356.4 331.594 356.8 331.594 356.8V354.4L329.194 350.8H327.994L330.394 355.6ZM477.994 356.8C477.994 359.2 478.794 362.8 480.394 367.6H485.194V350.8H479.194C478.394 353.2 477.994 355.2 477.994 356.8ZM525.994 356.8C525.194 356 523.594 354 521.194 350.8H492.394V367.6H509.194V352H516.394V367.6H533.194C531.594 366 529.994 364.4 528.394 362.8C527.594 360.4 526.794 358.4 525.994 356.8ZM584.794 367.6H601.594V350.8H587.194C586.394 354.8 585.594 358.4 584.794 361.6V367.6ZM608.794 367.6H625.594V350.8H608.794V367.6ZM632.794 367.6H649.594V350.8H632.794V367.6ZM656.794 367.6H673.594V350.8H656.794V367.6ZM680.794 367.6H697.594V350.8H680.794V367.6ZM704.794 367.6H721.594V350.8H704.794V367.6ZM728.794 367.6H745.594V350.8H728.794V367.6ZM752.794 367.6H769.594V350.8H752.794V367.6ZM500.794 382H492.394V391.6H509.194V374.8H500.794V382ZM516.394 391.6H533.194V374.8H516.394V391.6ZM584.794 385.6H577.594V378.4C574.394 380 573.194 380.8 573.994 380.8C572.394 381.6 570.794 382.8 569.194 384.4C567.594 386 565.994 387.2 564.394 388V391.6H581.194V388H588.394V391.6H605.194V390.4H612.394V391.6H625.594V374.8H608.794V388H601.594V374.8H584.794V385.6ZM632.794 391.6H649.594V374.8H632.794V391.6ZM656.794 391.6H673.594V374.8H656.794V391.6ZM680.794 391.6H697.594V374.8H680.794V391.6ZM704.794 391.6H721.594V374.8H704.794V391.6ZM728.794 391.6H745.594V374.8H728.794V391.6ZM349.594 390.4C349.594 391.2 349.594 391.6 349.594 391.6H353.194C353.994 389.2 353.994 387.2 353.194 385.6C353.194 384.8 352.794 384 351.994 383.2C351.194 382.4 350.394 381.6 349.594 380.8C348.794 380 347.194 378.4 344.794 376L345.994 377.2C346.794 378.8 347.194 381.2 347.194 384.4C347.994 386.8 348.794 388.8 349.594 390.4ZM540.394 378.4V391.6H557.194V386.8C556.394 386 555.594 385.6 554.794 385.6C553.994 384.8 553.194 384.4 552.394 384.4C550.794 383.6 548.794 382.8 546.394 382C543.994 380.4 541.994 379.2 540.394 378.4ZM503.194 406H493.594V407.2C493.594 408.8 493.194 411.6 492.394 415.6H509.194V398.8H503.194V406ZM516.394 415.6H533.194V398.8H516.394V415.6ZM540.394 415.6H557.194V398.8H540.394V415.6ZM564.394 415.6H581.194V398.8H564.394V415.6ZM588.394 415.6H605.194V398.8H588.394V415.6ZM636.394 402.4V415.6H649.594V398.8H612.394V415.6H629.194V402.4H636.394ZM656.794 415.6H673.594V398.8H656.794V415.6ZM680.794 415.6H697.594V398.8H680.794V415.6ZM704.794 415.6H721.594V398.8H704.794V415.6ZM344.794 407.2V421.6C347.994 413.6 349.994 407.2 350.794 402.4C349.994 403.2 348.794 404.4 347.194 406C345.594 406.8 344.794 407.2 344.794 407.2ZM516.394 439.6H533.194V422.8H516.394V439.6ZM540.394 439.6H557.194V422.8H540.394V439.6ZM564.394 439.6H581.194V422.8H564.394V439.6ZM588.394 439.6H605.194V422.8H588.394V439.6ZM612.394 439.6H629.194V422.8H612.394V439.6ZM660.394 438.4V439.6H673.594V422.8H636.394V439.6H653.194V438.4H660.394ZM680.794 439.6H697.594V422.8H680.794V439.6ZM721.594 439.6V422.8H704.794V439.6H721.594ZM492.394 439.6H509.194V430H492.394V439.6ZM476.794 438.4C475.994 438.4 475.194 438.8 474.394 439.6H485.194V434.8C483.594 435.6 481.994 436.4 480.394 437.2C478.794 437.2 477.594 437.6 476.794 438.4ZM450.394 463.6H461.194V443.2C457.994 443.2 454.794 442.8 451.594 442C448.394 440.4 445.994 439.6 444.394 439.6V487.6H461.194V470.8H450.394V463.6ZM468.394 463.6H485.194V446.8H468.394V463.6ZM524.794 454H516.394V463.6H533.194V446.8H524.794V454ZM540.394 463.6H557.194V446.8H540.394V463.6ZM564.394 463.6H581.194V446.8H564.394V463.6ZM588.394 463.6H605.194V446.8H588.394V463.6ZM612.394 463.6H629.194V446.8H612.394V463.6ZM492.394 463.6H509.194V454H492.394V463.6ZM684.394 539.2H677.194V467.2H684.394V539.2ZM479.194 478V470.8H468.394V487.6H485.194V478H479.194ZM546.394 478H540.394V487.6H557.194V470.8H546.394V478ZM564.394 487.6H581.194V470.8H564.394V487.6ZM588.394 487.6H605.194V470.8H588.394V487.6ZM503.194 478H504.394H492.394V487.6C493.994 486 495.594 484.4 497.194 482.8C499.594 481.2 501.594 479.6 503.194 478ZM530.794 482.8C531.594 482.8 532.394 483.2 533.194 484V478H521.194C525.994 479.6 529.194 481.2 530.794 482.8ZM444.394 511.6H461.194V494.8H444.394V511.6ZM471.994 502V494.8H468.394V511.6H481.594C482.394 510 483.594 506.8 485.194 502H471.994ZM549.994 511.6H557.194V494.8H540.394V496C545.194 502.4 548.394 507.6 549.994 511.6ZM564.394 511.6H581.194V494.8H564.394V511.6ZM396.394 535.6H413.194V518.8H396.394V535.6ZM420.394 535.6H437.194V518.8H420.394V535.6ZM461.194 524.8V518.8H444.394V535.6H468.394C469.194 534 469.994 532.4 470.794 530.8C471.594 529.2 472.394 527.6 473.194 526H467.194V524.8H461.194ZM553.594 518.8C555.194 521.2 556.394 523.2 557.194 524.8V518.8H553.594ZM575.194 542.8H565.594C571.194 553.2 575.594 562.8 578.794 571.6C579.594 574 580.394 576.4 581.194 578.8V518.8H564.394V535.6H575.194V542.8ZM359.194 547.6H347.194V540.4H359.194V547.6ZM396.394 559.6H413.194V542.8H396.394V559.6ZM444.394 544H437.194V542.8H420.394V559.6H437.194V551.2H444.394V559.6H455.194C455.994 558 456.794 556.4 457.594 554.8C459.194 552.4 460.394 550.4 461.194 548.8C461.994 547.2 462.794 545.2 463.594 542.8H444.394V544ZM396.394 588.4H413.194V566.8H396.394V588.4ZM433.594 583.6H437.194V566.8H420.394V588.4H433.594V583.6ZM457.594 574C456.794 573.2 455.994 572.4 455.194 571.6C455.194 570 455.194 568.4 455.194 566.8H444.394V583.6H458.794C457.994 582 457.594 580.4 457.594 578.8C457.594 577.2 457.594 575.6 457.594 574ZM348.394 588.4H365.194V571.6H348.394V588.4ZM372.394 588.4H389.194V571.6H372.394V588.4ZM447.994 595.6H444.394V612.4H459.994V607.6H461.194V590.8H447.994V595.6ZM300.394 612.4H317.194V595.6H300.394V612.4ZM324.394 612.4H341.194V595.6H324.394V612.4ZM348.394 612.4H365.194V595.6H348.394V612.4ZM372.394 612.4H389.194V595.6H372.394V612.4ZM396.394 612.4H413.194V595.6H396.394V612.4ZM420.394 612.4H437.194V595.6H420.394V612.4ZM468.394 607.6H475.594C472.394 604.4 469.994 601.2 468.394 598V607.6ZM471.994 631.6H485.194V617.2C484.394 616.4 483.594 615.6 482.794 614.8H468.394V636.4H471.994V631.6ZM276.394 636.4H293.194V619.6H276.394V636.4ZM300.394 636.4H317.194V619.6H300.394V636.4ZM324.394 636.4H341.194V619.6H324.394V636.4ZM348.394 636.4H365.194V619.6H348.394V636.4ZM372.394 636.4H389.194V619.6H372.394V636.4ZM396.394 636.4H413.194V619.6H396.394V636.4ZM420.394 636.4H437.194V619.6H420.394V636.4ZM444.394 636.4H461.194V619.6H444.394V636.4ZM492.394 631.6H499.594C497.194 629.2 494.794 626.8 492.394 624.4V631.6ZM471.994 643.6H468.394V660.4H479.194V655.6H485.194V638.8H471.994V643.6ZM492.394 655.6H509.194V641.2L506.794 638.8H492.394V655.6ZM252.394 660.4H269.194V643.6H252.394V660.4ZM276.394 660.4H293.194V643.6H276.394V660.4ZM300.394 660.4H317.194V643.6H300.394V660.4ZM324.394 660.4H341.194V643.6H324.394V660.4ZM348.394 660.4H365.194V643.6H348.394V660.4ZM372.394 660.4H389.194V643.6H372.394V660.4ZM396.394 660.4H413.194V643.6H396.394V660.4ZM420.394 660.4H437.194V643.6H420.394V660.4ZM444.394 660.4H461.194V643.6H444.394V660.4ZM516.394 655.6H524.794C521.594 653.2 518.794 650.8 516.394 648.4V655.6ZM481.594 667.6H468.394V684.4H485.194V662.8H481.594V667.6ZM492.394 679.6H509.194V662.8H492.394V679.6ZM516.394 679.6H533.194V664L531.994 662.8H516.394V679.6ZM651.994 671.2C652.794 672.8 652.794 675.2 651.994 678.4C651.194 680.8 650.794 682.8 650.794 684.4H653.194V667.6H649.594C651.194 669.2 651.994 670.4 651.994 671.2ZM660.394 684.4H667.594C670.794 680.4 673.994 676.8 677.194 673.6V667.6H660.394V684.4ZM252.394 684.4H269.194V667.6H252.394V684.4ZM276.394 684.4H293.194V667.6H276.394V684.4ZM300.394 684.4H317.194V667.6H300.394V684.4ZM324.394 684.4H341.194V667.6H324.394V684.4ZM348.394 684.4H365.194V667.6H348.394V684.4ZM372.394 684.4H389.194V667.6H372.394V684.4ZM396.394 684.4H413.194V667.6H396.394V684.4ZM420.394 684.4H437.194V667.6H420.394V684.4ZM444.394 684.4H461.194V667.6H444.394V684.4ZM540.394 679.6H552.394C548.394 676.4 544.394 673.2 540.394 670V679.6ZM492.394 703.6H509.194V686.8H492.394V703.6ZM516.394 703.6H527.194C529.594 701.2 531.594 700 533.194 700V686.8H516.394V703.6ZM540.394 700C543.594 700 546.394 700.4 548.794 701.2C551.994 701.2 554.794 701.6 557.194 702.4V686.8H540.394V700ZM564.394 703.6H581.194V698.8C575.594 695.6 569.994 692 564.394 688V703.6ZM641.194 702.4C640.394 702.4 639.594 703.2 638.794 704.8C637.994 705.6 637.194 706.4 636.394 707.2V708.4H651.994L653.194 707.2V691.6H650.794C650.794 693.2 650.394 694.4 649.594 695.2C648.794 696.8 647.594 698.4 645.994 700C644.394 700.8 642.794 701.6 641.194 702.4ZM660.394 695.2L662.794 691.6H660.394V695.2ZM285.994 695.2C286.794 696 287.594 696.8 288.394 697.6C289.994 698.4 291.594 699.2 293.194 700V691.6H282.394C284.794 694 285.994 695.2 285.994 695.2ZM301.594 708.4H317.194V691.6H300.394V707.2L301.594 708.4ZM324.394 708.4H341.194V691.6H324.394V708.4ZM348.394 708.4H365.194V691.6H348.394V708.4ZM372.394 708.4H389.194V691.6H372.394V708.4ZM396.394 708.4H413.194V691.6H396.394V708.4ZM420.394 708.4H437.194V691.6H420.394V708.4ZM444.394 708.4H461.194V691.6H444.394V708.4ZM468.394 708.4H485.194V691.6H468.394V708.4ZM506.794 726.4C506.794 725.6 506.794 724.4 506.794 722.8C507.594 721.2 508.394 720 509.194 719.2V710.8H492.394V727.6H505.594L506.794 726.4ZM579.994 710.8C579.994 710.8 580.394 711.2 581.194 712V710.8H579.994ZM602.794 715.6V710.8H588.394V715.6C590.794 717.2 593.194 718.8 595.594 720.4C598.794 722 601.994 723.6 605.194 725.2V715.6H602.794ZM615.994 727.6V728.8C617.594 729.6 619.194 730.4 620.794 731.2C623.194 732 625.194 732.4 626.794 732.4H629.194V715.6H612.394V727.6H615.994ZM637.594 726.4C641.594 722.4 644.794 718.8 647.194 715.6H636.394V726.4C637.194 726.4 637.594 726.4 637.594 726.4ZM308.794 715.6C311.194 718.8 313.994 722 317.194 725.2V715.6H308.794ZM324.394 732.4H341.194V715.6H324.394V732.4ZM348.394 732.4H365.194V715.6H348.394V732.4ZM372.394 732.4H389.194V715.6H372.394V732.4ZM396.394 732.4H413.194V715.6H396.394V732.4ZM420.394 732.4H437.194V715.6H420.394V732.4ZM444.394 732.4H461.194V715.6H444.394V732.4ZM468.394 732.4H485.194V715.6H468.394V732.4ZM492.394 734.8V772C493.994 765.6 495.594 759.6 497.194 754C498.794 747.6 500.794 741.2 503.194 734.8H492.394ZM332.794 739.6C335.194 742 337.994 744.8 341.194 748V739.6H332.794ZM350.794 756.4H365.194V739.6H348.394V754C349.194 754.8 349.994 755.6 350.794 756.4ZM372.394 756.4H389.194V739.6H372.394V756.4ZM396.394 756.4H413.194V739.6H396.394V756.4ZM420.394 756.4H432.394C434.794 754 436.394 752.4 437.194 751.6V739.6H420.394V756.4ZM458.794 746.8C458.794 746.8 459.594 746.8 461.194 746.8V739.6H444.394V748C446.794 747.2 449.194 747.2 451.594 748C453.994 748 456.394 747.6 458.794 746.8ZM474.394 754C475.194 754.8 475.994 755.6 476.794 756.4H485.194V739.6H468.394V746.8C469.194 746.8 469.994 748 470.794 750.4C472.394 752 473.594 753.2 474.394 754ZM359.194 763.6C361.594 765.2 363.594 766.8 365.194 768.4V763.6H359.194ZM374.794 774.4C377.194 775.2 379.594 775.6 381.994 775.6C384.394 775.6 386.794 775.6 389.194 775.6V763.6H372.394V773.2L374.794 774.4ZM408.394 772L413.194 769.6V763.6H396.394V776.8C397.194 776.8 397.994 776.8 398.794 776.8C400.394 776.8 401.994 776.4 403.594 775.6C405.194 774 406.794 772.8 408.394 772ZM420.394 764.8L422.794 763.6H420.394V764.8ZM483.994 764.8C484.794 767.2 484.794 770 483.994 773.2C483.994 776.4 483.994 778.8 483.994 780.4H485.194V763.6H482.794L483.994 764.8ZM485.194 804.4V787.6H483.994C483.194 793.2 481.994 798.8 480.394 804.4H485.194ZM469.594 826C469.594 826 469.194 826.4 468.394 827.2V828.4H485.194V811.6H477.994C475.594 816.4 472.794 821.2 469.594 826ZM228.394 828.4H229.594C229.594 827.6 229.194 825.2 228.394 821.2V828.4ZM325.594 859.6H294.394V854.8C282.394 854 271.594 852 261.994 848.8C259.594 848.8 257.194 848.8 254.794 848.8C253.194 848 251.594 847.2 249.994 846.4C248.394 845.6 247.194 844.8 246.394 844H245.194V842.8C243.594 841.2 241.994 840 240.394 839.2C238.794 837.6 237.994 836.4 237.994 835.6H219.994V828.4H221.194V811.6H207.994V804.4H221.194V787.6H203.194V780.4H221.194V763.6H203.194V756.4H221.194V739.6H203.194V732.4H221.194V715.6H203.194V708.4H221.194V707.2H228.394V708.4C229.994 705.2 231.194 702.8 231.994 701.2C232.794 700.4 234.394 699.6 236.794 698.8C239.194 697.2 241.194 695.6 242.794 694C242.794 694 243.594 693.6 245.194 692.8V691.6H207.994V684.4H245.194V667.6H217.594V660.4H245.194V643.6H231.994V636.4H245.194V623.2H252.394V636.4H269.194V619.6H253.594V612.4H269.194V604H276.394V612.4H293.194V595.6H282.394V588.4H317.194V587.2H324.394V588.4H341.194V571.6H308.794V564.4H365.194V534.4H372.394V564.4H389.194V542.8H385.594V535.6H389.194V508H396.394V511.6H413.194V479.2H420.394V511.6H437.194V494.8H421.594V487.6H437.194V437.2C433.194 436.4 429.194 435.2 425.194 433.6C421.994 432 418.394 431.2 414.394 431.2C411.194 430.4 407.994 430.4 404.794 431.2C401.594 431.2 398.394 431.2 395.194 431.2C387.994 432 380.794 433.2 373.594 434.8C366.394 435.6 359.194 435.6 351.994 434.8L344.794 433.6V436H337.594V414.4C335.994 416 334.794 417.2 333.994 418C333.194 418.8 331.994 419.2 330.394 419.2V422.8H320.794V436H313.594V425.2C307.994 426.8 302.394 428 296.794 428.8V436H289.594V430C282.394 430.8 276.794 431.2 272.794 431.2V433.6H265.594V431.2C261.594 431.2 258.794 431.2 257.194 431.2C255.594 430.4 253.594 429.6 251.194 428.8C249.594 428 247.994 427.2 246.394 426.4H241.594V424C237.594 422.4 234.794 421.2 233.194 420.4C231.594 418.8 229.994 417.2 228.394 415.6C227.594 413.2 226.794 411.2 225.994 409.6C224.394 408 222.794 406.4 221.194 404.8C219.594 403.2 218.394 401.2 217.594 398.8C216.794 397.2 215.994 395.2 215.194 392.8C215.194 390.4 215.194 388.4 215.194 386.8C211.994 376.4 210.394 366 210.394 355.6C210.394 345.2 210.394 334 210.394 322C211.194 315.6 211.594 309.6 211.594 304C212.394 297.6 213.994 291.2 216.394 284.8C216.394 283.2 216.794 281.2 217.594 278.8C218.394 275.6 219.194 273.6 219.994 272.8C220.794 272 221.594 271.6 222.394 271.6C223.994 271.6 225.194 271.6 225.994 271.6C226.794 270.8 227.994 270.4 229.594 270.4C231.994 269.6 233.994 268.8 235.594 268V254.8H239.194V247.6H259.594V245.2H266.794V246.4C268.394 245.6 269.994 244.8 271.594 244C273.194 243.2 274.794 242.8 276.394 242.8C282.794 239.6 289.594 237.2 296.794 235.6C304.794 234 312.794 233.2 320.794 233.2C336.794 232.4 352.794 232 368.794 232C384.794 232 400.794 232 416.794 232C429.594 232 442.394 232 455.194 232C467.994 232 480.394 232.4 492.394 233.2C496.394 233.2 499.994 233.6 503.194 234.4C506.394 234.4 509.594 234.4 512.794 234.4C519.194 235.2 524.794 236 529.594 236.8V234.4H536.794V239.2C542.394 240 547.594 241.6 552.394 244C553.194 244 553.594 244.4 553.594 245.2V234.4H560.794V247.6H577.594V234.4H584.794V247.6H594.394C594.394 246 594.394 245.2 594.394 245.2C594.394 244.4 594.394 242.8 594.394 240.4C594.394 237.2 594.794 235.2 595.594 234.4C596.394 233.6 598.394 233.2 601.594 233.2C604.794 233.2 607.194 233.2 608.794 233.2C614.394 232.4 619.994 232 625.594 232C631.994 232 639.194 232 647.194 232C660.794 232 674.394 232 687.994 232C701.594 232 715.194 232.4 728.794 233.2C735.994 233.2 743.194 234 750.394 235.6C758.394 236.4 765.194 238.8 770.794 242.8C772.394 243.6 774.394 245.2 776.794 247.6C777.594 248.4 777.994 249.2 777.994 250C780.394 251.6 782.794 253.6 785.194 256C787.594 257.6 789.194 259.6 789.994 262C794.794 269.2 797.994 277.6 799.594 287.2H800.794V409.6H793.594V350.8H776.794V452.8H769.594V374.8H752.794V391.6H755.194V398.8H752.794V469.6H745.594V398.8H728.794V415.6H740.794V422.8H728.794V474.4H721.594V446.8H704.794V469.6H697.594V446.8H680.794V460H673.594V446.8H660.394V563.2H653.194V446.8H636.394V463.6H649.594V470.8H636.394V582.4H629.194V470.8H612.394V599.2H605.194V494.8H588.394V604C590.794 611.2 593.194 616.8 595.594 620.8C600.394 628 605.994 634.4 612.394 640C616.394 642.4 619.994 644.4 623.194 646C627.194 646.8 629.994 648 631.594 649.6H636.394V653.2C637.994 654.8 640.394 657.2 643.594 660.4H653.194V649.6H660.394V660.4H677.194V649.6H684.394V660.4H695.194C697.594 659.6 699.594 658.8 701.194 658V649.6H708.394V656.8C713.194 656 718.794 655.6 725.194 655.6V652H732.394V656.8C733.994 656.8 735.594 656.8 737.194 656.8C738.794 656.8 740.394 656.8 741.994 656.8C744.394 657.6 746.794 658 749.194 658V652H756.394V658C759.594 658 762.394 658.4 764.794 659.2C767.994 659.2 770.794 659.2 773.194 659.2V656.8H780.394V660.4H797.194V662.8H798.394C799.994 663.6 801.594 664.8 803.194 666.4H804.394V667.6C805.194 668.4 805.994 669.6 806.794 671.2C808.394 672 809.594 672.4 810.394 672.4C811.194 674 812.394 675.2 813.994 676C815.594 676.8 816.794 678 817.594 679.6C818.394 681.2 819.194 683.2 819.994 685.6C820.794 687.2 821.594 689.2 822.394 691.6C823.994 696.4 825.194 701.6 825.994 707.2H828.394V724C828.394 728 828.394 732.4 828.394 737.2C829.194 742 829.594 746.8 829.594 751.6C829.594 755.6 829.194 759.6 828.394 763.6C828.394 767.6 828.394 771.6 828.394 775.6V779.2C827.594 788.8 825.994 797.2 823.594 804.4V811.6H821.194C820.394 814 819.594 816.4 818.794 818.8C817.994 821.2 817.194 823.2 816.394 824.8C815.594 825.6 813.994 826.8 811.594 828.4V835.6H804.394C801.194 838.8 798.794 841.2 797.194 842.8C790.794 846 783.994 848.4 776.794 850C769.594 851.6 762.794 852.8 756.394 853.6C752.394 854.4 748.394 854.8 744.394 854.8V859.6H645.994V856C640.394 856 634.794 856 629.194 856C623.594 856 617.994 856 612.394 856C608.394 856 604.394 856 600.394 856C596.394 856 592.394 856 588.394 856H581.194C575.594 856 569.994 856 564.394 856H552.394C550.794 855.2 548.794 854.8 546.394 854.8C544.794 854.8 542.794 854.8 540.394 854.8V856H533.194V854.8C526.794 854 521.594 852.8 517.594 851.2L516.394 850V856H509.194V846.4C503.594 842.4 499.594 839.2 497.194 836.8L495.994 835.6H492.394V856H485.194V835.6H468.394V856H461.194V836.8C456.394 840.8 450.794 844 444.394 846.4V856H437.194V848.8C433.194 850.4 429.194 851.6 425.194 852.4H426.394V859.6H371.194V856C363.194 856 355.194 856 347.194 856C339.994 856 332.794 856 325.594 856V859.6Z" fill="#9C86AA"/>
</svg>
